# xmcd CD database file
#
# Track frame offsets:
#	150
#	45450
#	70002
#	104292
#	141713
#	163771
#	196661
#
# Disc length: 2797 seconds
#
# Revision: 1
# Processed by: cddbd v1.5.2PL0 Copyright (c) Steve Scherf et al.
# Submitted via: CDex 1.51
#
DISCID=5e0aeb07
DTITLE=Alex Corezzi - Eletric Jazz
DYEAR=2004
DGENRE=Jazz
TTITLE0=Eletric Jazz (Alex Corezzi)
TTITLE1=Funk Davis (Fábio Costa)
TTITLE2=Recife Trance (Alex Corezzi)
TTITLE3=Verneiul-Sur-Seine (Alex Corezzi)
TTITLE4=Manu (Alex Corezzi)
TTITLE5=Manhattan Residence (Alex Corezzi)
TTITLE6=Chuva de Aldeia (Alex Corezzi)
EXTD=YEAR: 2004
EXTT0=
EXTT1=
EXTT2=
EXTT3=
EXTT4=
EXTT5=
EXTT6=
PLAYORDER=
